<svg width="57" height="57" viewBox="0 0 57 57" fill="none" xmlns="http://www.w3.org/2000/svg">
<path d="M57 12.8732V50.0909H0V12.8732L3.33984 9.5H53.6602L57 12.8732Z" fill="#EFEFF4"/>
<path d="M57 12.8732V50.0909H28.5V9.5H53.6602L57 12.8732Z" fill="#DADAE5"/>
<path d="M0 0H57V13.8182H0V0Z" fill="#474F54"/>
<path d="M28.5 0H57V13.8182H28.5V0Z" fill="#32393F"/>
<path d="M6.90906 5.18182H10.1909V8.63637H6.90906V5.18182Z" fill="#FF637B"/>
<path d="M13.4727 5.18182H16.7545V8.63637H13.4727V5.18182Z" fill="#FF637B"/>
<path d="M20.0364 5.18182H23.3182V8.63637H20.0364V5.18182Z" fill="#FF637B"/>
<path d="M40.5909 37.6247V57H30.5974V53.6956H27.2662V57H17.2727V37.6247L27.3994 29.3636H30.1645L40.5909 37.6247Z" fill="#FF637B"/>
<path d="M10.3636 19.8636H47.5V23.3182H10.3636V19.8636Z" fill="#DADAE5"/>
<path d="M28.5 19.8636H46.6364V23.3182H28.5V19.8636Z" fill="#C9C9D3"/>
<path d="M40.5909 37.6247V57H30.2273V53.6956H28.5V29.3636H29.7784L40.5909 37.6247Z" fill="#E63950"/>
<path d="M26.7727 40.5909H30.2273V44.0454H26.7727V40.5909Z" fill="#EFEFF4"/>
<path d="M28.5 40.5909H30.2273V44.0454H28.5V40.5909Z" fill="#DADAE5"/>
<path d="M44.9091 40.7722L42.7254 43.1818L28.9319 31.135L15.1383 43.1818L12.9546 40.7722L28.9319 26.7727L44.9091 40.7722Z" fill="#676E74"/>
<path d="M28.5 26.7727L44.9091 40.7722L42.6664 43.1818L28.5 31.135L28.5 26.7727Z" fill="#474F54"/>
</svg>
