<svg width="57" height="57" viewBox="0 0 57 57" fill="none" xmlns="http://www.w3.org/2000/svg">
<path d="M23.4902 46.8691H33.5098V57H23.4902V46.8691Z" fill="#676E74"/>
<path d="M28.5 46.8691H33.5098V57H28.5V46.8691Z" fill="#333637"/>
<path d="M20.1504 41.8594H36.8496V50.209H20.1504V41.8594Z" fill="#4C545A"/>
<path d="M28.5 41.8594H36.8496V50.209H28.5V41.8594Z" fill="#52585C"/>
<path d="M40.089 32.7083C38.0186 34.4117 36.8496 36.8161 36.8496 39.321V41.8594H20.1504V39.321C20.1504 36.7826 19.048 34.4117 17.2115 32.9753C12.7027 29.4685 10.1309 24.1917 10.1309 18.4805C10.1309 12.9362 12.6023 7.72643 16.911 4.21916C20.2174 1.54729 24.2582 0 28.5 0C29.8025 0 31.1384 0.133507 32.4408 0.400955C39.655 1.90388 45.3327 7.92648 46.6021 15.2411C47.7376 21.9208 45.3327 28.4665 40.089 32.7083Z" fill="#FFDA2D"/>
<path d="M40.089 32.7083C38.0186 34.4117 36.8496 36.8161 36.8496 39.321V41.8594H28.5V0C29.8025 0 31.1384 0.133507 32.4408 0.400955C39.655 1.90388 45.3327 7.92648 46.6021 15.2411C47.7376 21.9208 45.3327 28.4665 40.089 32.7083Z" fill="#FDBF00"/>
<path d="M16.8105 40.1895H40.1895V43.5293H16.8105V40.1895Z" fill="#676E74"/>
<path d="M35.5855 9.0332L37.9469 11.3946L34.4035 14.9379L32.0421 12.5766L35.5855 9.0332Z" fill="#FF9100"/>
<path d="M22.5965 22.0221L24.9579 24.3835L21.4141 27.9273L19.0527 25.5659L22.5965 22.0221Z" fill="#FDBF00"/>
<path d="M26.8301 25.1602H30.1699V30.1699H26.8301V25.1602Z" fill="#FDBF00"/>
<path d="M34.4035 22.0221L37.9469 25.5659L35.5855 27.9273L32.0421 24.3835L34.4035 22.0221Z" fill="#FF9100"/>
<path d="M35.1797 16.8105H40.1895V20.1504H35.1797V16.8105Z" fill="#FF9100"/>
<path d="M21.4141 9.0332L24.9579 12.577L22.5965 14.9379L19.0527 11.3946L21.4141 9.0332Z" fill="#FDBF00"/>
<path d="M16.8105 16.8105H21.8203V20.1504H16.8105V16.8105Z" fill="#FDBF00"/>
<path d="M26.8301 6.79102H30.1699V11.8008H26.8301V6.79102Z" fill="#FDBF00"/>
<path d="M0 16.8105H6.79102V20.1504H0V16.8105Z" fill="#FFDA2D"/>
<path d="M5.86475 13.1902L0.743652 9.85039L2.59622 7.07153L7.71732 10.4114L5.86475 13.1902Z" fill="#FFDA2D"/>
<path d="M2.59622 29.8895L0.743652 27.1106L5.86475 23.7708L7.71732 26.5496L2.59622 29.8895Z" fill="#FFDA2D"/>
<path d="M50.209 16.8105H57V20.1504H50.209V16.8105Z" fill="#FDBF00"/>
<path d="M54.4038 29.8895L49.2827 26.5496L51.1353 23.7708L56.2564 27.1106L54.4038 29.8895Z" fill="#FDBF00"/>
<path d="M51.1353 13.1902L49.2827 10.4114L54.4038 7.07153L56.2564 9.85039L51.1353 13.1902Z" fill="#FDBF00"/>
<path d="M28.5 6.79102H30.1699V11.8008H28.5V6.79102Z" fill="#FF9100"/>
<path d="M28.5 25.1602H30.1699V30.1699H28.5V25.1602Z" fill="#FF9100"/>
<path d="M28.5 40.1895H40.1895V43.5293H28.5V40.1895Z" fill="#333637"/>
<path d="M28.5 10.1309C23.8912 10.1309 20.1504 13.8717 20.1504 18.4805C20.1504 23.0893 23.8912 26.8301 28.5 26.8301C33.1088 26.8301 36.8496 23.0893 36.8496 18.4805C36.8496 13.8717 33.1088 10.1309 28.5 10.1309Z" fill="#FDBF00"/>
<path d="M28.5 26.8301V10.1309C33.1088 10.1309 36.8496 13.8717 36.8496 18.4805C36.8496 23.0893 33.1088 26.8301 28.5 26.8301Z" fill="#FF9100"/>
<path d="M26.8301 16.8105H30.1699V20.1504H26.8301V16.8105Z" fill="#FFDA2D"/>
<path d="M28.5 16.8105H30.1699V20.1504H28.5V16.8105Z" fill="#FDBF00"/>
</svg>
