<svg width="57" height="57" viewBox="0 0 57 57" fill="none" xmlns="http://www.w3.org/2000/svg">
<path d="M57 0V36.7383L53.6602 40.1895H3.33984L0 36.7383V0H57Z" fill="#474F54"/>
<path d="M57 0V36.7383L53.6602 40.1895H28.5V0H57Z" fill="#32393F"/>
<path d="M20.1504 45.3105H36.8496V55.3301H20.1504V45.3105Z" fill="#DADAE5"/>
<path d="M28.5 45.3105H36.8496V55.3301H28.5V45.3105Z" fill="#C9C9D3"/>
<path d="M0 36.7383H57V46.9805H0V36.7383Z" fill="#EFEFF4"/>
<path d="M28.5 36.7383H57V46.9805H28.5V36.7383Z" fill="#DADAE5"/>
<path d="M13.4707 53.6602H43.5293V57H13.4707V53.6602Z" fill="#EFEFF4"/>
<path d="M28.5 53.6602H43.5293V57H28.5V53.6602Z" fill="#DADAE5"/>
<path fill-rule="evenodd" clip-rule="evenodd" d="M6.79102 18.3691C6.79102 11.9243 12.0356 6.67969 18.4805 6.67969C24.9253 6.67969 30.1699 11.9243 30.1699 18.3691C30.1699 24.814 24.9253 30.0586 18.4805 30.0586C12.0356 30.0586 6.79102 24.814 6.79102 18.3691ZM13.4707 18.3691C13.4707 21.1315 15.7181 23.3789 18.4805 23.3789C21.2428 23.3789 23.4902 21.1315 23.4902 18.3691C23.4902 15.6068 21.2428 13.3594 18.4805 13.3594C15.7181 13.3594 13.4707 15.6068 13.4707 18.3691Z" fill="#549EF2"/>
<path d="M40.1895 6.67969H50.3203V10.0195H40.1895V6.67969Z" fill="#377FD2"/>
<path d="M33.5098 6.67969H36.8496V10.0195H33.5098V6.67969Z" fill="#377FD2"/>
<path d="M40.1895 20.0391H50.3203V23.3789H40.1895V20.0391Z" fill="#377FD2"/>
<path d="M33.5098 20.0391H36.8496V23.3789H33.5098V20.0391Z" fill="#377FD2"/>
<path d="M33.5098 13.3594H50.3203V16.6992H33.5098V13.3594Z" fill="#377FD2"/>
<path d="M33.5098 26.7188H50.3203V30.0586H33.5098V26.7188Z" fill="#377FD2"/>
</svg>
